<?xml version="1.0" standalone="no"?>
<!DOCTYPE svg PUBLIC "-//W3C//DTD SVG 20010904//EN"
 "http://www.w3.org/TR/2001/REC-SVG-20010904/DTD/svg10.dtd">
<svg version="1.0" xmlns="http://www.w3.org/2000/svg"
 width="400.000000pt" height="400.000000pt" viewBox="0 0 400.000000 400.000000"
 preserveAspectRatio="xMidYMid meet">
<metadata>
Created by potrace 1.11, written by Peter Selinger 2001-2013
</metadata>
<g transform="translate(0.000000,400.000000) scale(0.100000,-0.100000)"
fill="#000000" stroke="none">
<path d="M1804 3993 c5 -9 0 -13 -16 -12 -13 0 -41 -2 -63 -5 -22 -4 -50 -7
-62 -8 -13 -1 -23 -5 -23 -9 0 -3 -13 -5 -30 -4 -16 1 -30 -2 -30 -7 0 -4 -3
-7 -7 -6 -12 3 -96 -13 -108 -20 -5 -4 -14 -7 -20 -9 -5 -1 -20 -4 -32 -7 -12
-2 -31 -10 -42 -16 -12 -6 -21 -8 -21 -4 0 3 -6 1 -13 -5 -8 -6 -17 -8 -20 -4
-4 3 -7 0 -7 -7 0 -7 -3 -10 -7 -7 -3 4 -11 2 -18 -3 -6 -5 -20 -11 -31 -13
-10 -1 -46 -16 -79 -32 -33 -17 -62 -30 -65 -30 -5 -1 -31 -15 -75 -43 -11 -7
-35 -19 -52 -27 -18 -9 -33 -20 -33 -25 0 -6 -3 -9 -7 -8 -11 3 -73 -35 -73
-44 0 -4 -6 -8 -13 -8 -7 0 -24 -11 -39 -25 -15 -14 -31 -25 -36 -25 -6 0 -13
-7 -16 -16 -4 -9 -9 -15 -12 -12 -3 3 -17 -6 -32 -21 -15 -14 -53 -49 -84 -77
-32 -28 -55 -54 -51 -58 3 -3 1 -6 -5 -6 -7 0 -25 -14 -40 -31 -15 -17 -35
-40 -44 -50 -10 -10 -18 -22 -18 -25 0 -11 -28 -33 -34 -27 -3 4 -6 0 -6 -8
-1 -8 -14 -30 -30 -49 -17 -19 -30 -40 -30 -48 0 -7 -5 -10 -10 -7 -6 3 -10
-1 -10 -9 0 -9 -4 -16 -9 -16 -5 0 -11 -8 -15 -17 -3 -10 -23 -46 -45 -80 -22
-35 -37 -63 -35 -63 3 0 -2 -7 -10 -16 -9 -8 -14 -20 -11 -25 4 -5 2 -9 -3 -9
-10 0 -42 -64 -42 -85 0 -8 -4 -15 -9 -15 -5 0 -12 -10 -16 -22 -4 -13 -8 -25
-9 -28 -2 -3 -6 -17 -10 -32 -5 -16 -12 -28 -18 -28 -5 0 -6 -5 -3 -10 4 -6 1
-18 -7 -27 -11 -14 -11 -16 2 -8 12 7 12 4 -1 -11 -14 -16 -30 -62 -35 -99 0
-5 -4 -18 -8 -27 -4 -9 -9 -22 -10 -30 -2 -7 -6 -24 -10 -38 -4 -14 -9 -38
-11 -55 -2 -16 -4 -30 -5 -30 -1 0 -4 -16 -6 -35 -6 -47 -9 -63 -15 -75 -2 -5
-4 -27 -4 -47 1 -21 -1 -38 -5 -38 -3 0 -6 -11 -6 -25 -1 -16 2 -22 10 -18 8
5 7 2 -1 -8 -17 -20 -16 -272 0 -262 8 5 8 2 0 -9 -7 -8 -10 -18 -7 -21 4 -3
8 -19 9 -34 2 -15 7 -50 10 -78 4 -27 8 -59 10 -70 1 -11 3 -20 4 -20 1 0 4
-12 6 -26 2 -14 9 -45 16 -70 7 -24 13 -48 14 -54 1 -5 3 -12 4 -15 2 -3 4
-13 7 -22 2 -10 6 -26 8 -35 3 -10 5 -18 6 -18 1 0 3 -9 5 -19 2 -10 7 -22 12
-25 4 -3 9 -16 10 -28 1 -11 13 -45 27 -75 13 -29 26 -60 28 -68 2 -8 8 -18
13 -22 6 -4 10 -11 10 -15 0 -17 28 -73 36 -73 5 0 8 -3 7 -7 -3 -12 35 -83
44 -83 4 0 8 -9 8 -20 0 -11 4 -20 10 -20 5 0 17 -16 26 -35 9 -20 30 -49 45
-66 16 -17 29 -34 29 -38 0 -7 36 -52 75 -93 14 -15 25 -32 25 -38 0 -6 5 -8
10 -5 5 3 10 2 10 -3 0 -16 128 -140 225 -217 21 -16 46 -38 56 -48 11 -9 26
-17 35 -17 8 0 12 -4 9 -10 -3 -5 1 -10 9 -10 9 0 16 -4 16 -10 0 -5 7 -10 14
-10 8 0 27 -11 42 -25 14 -13 30 -22 34 -20 5 3 10 1 12 -3 5 -12 113 -72 131
-72 8 0 17 -4 19 -8 3 -8 113 -62 126 -62 4 0 20 -7 35 -15 15 -8 25 -10 22
-6 -2 5 12 0 32 -10 21 -11 45 -19 55 -19 9 0 20 -5 24 -11 3 -6 15 -9 25 -6
11 3 19 2 19 -2 0 -4 6 -8 13 -9 24 -3 102 -19 102 -22 0 -1 9 -3 20 -5 11 -2
34 -6 50 -9 17 -3 50 -9 75 -13 80 -13 585 -7 585 7 0 1 15 3 34 6 45 6 69 11
109 23 17 5 32 8 32 6 0 -2 18 2 40 10 22 8 42 15 45 15 6 1 14 3 85 26 30 10
58 17 62 16 3 -1 12 5 18 13 7 8 18 15 25 15 7 0 29 7 49 15 20 8 39 15 42 14
4 0 10 3 13 8 3 4 45 28 93 53 49 25 88 48 88 53 0 4 4 7 10 7 11 0 102 60
112 75 4 6 8 7 8 3 0 -5 8 0 18 10 28 25 56 48 62 47 5 0 53 44 145 134 78 76
179 190 179 201 0 3 9 13 20 22 12 10 18 17 14 18 -7 0 11 25 40 56 7 8 10 14
6 14 -4 0 1 7 12 15 10 8 15 15 11 15 -5 0 -1 7 7 16 9 8 16 22 16 30 0 8 4
14 8 14 4 0 26 35 47 77 22 43 44 81 48 84 5 3 8 10 7 15 0 5 9 32 21 59 12
28 28 63 35 80 7 16 10 33 8 37 -3 4 0 8 6 8 7 0 10 7 6 15 -3 8 0 15 6 15 6
0 8 3 5 7 -4 3 -2 12 4 20 6 7 9 13 6 13 -3 0 4 28 14 62 20 62 32 118 33 151
0 9 3 17 7 17 4 0 6 8 4 18 -1 9 0 21 3 26 12 21 16 113 16 336 0 129 -4 251
-8 270 -4 19 -9 49 -12 65 -5 36 -12 70 -14 70 -2 0 -6 19 -13 60 -3 17 -10
43 -16 59 -7 16 -10 35 -7 43 3 7 2 13 -3 13 -6 0 -29 59 -36 90 0 3 -6 15
-13 27 -6 12 -14 30 -15 40 -2 10 -14 39 -26 65 -12 26 -21 51 -21 54 1 4 -2
10 -7 13 -4 3 -19 29 -33 56 -14 28 -27 52 -30 55 -5 5 -22 32 -71 118 -17 28
-35 52 -40 52 -5 0 -9 4 -9 10 0 9 -25 42 -57 76 -7 7 -13 17 -13 23 0 6 -8
15 -18 20 -10 5 -24 21 -31 35 -8 14 -18 23 -23 20 -4 -3 -8 2 -8 11 0 9 -4
13 -10 10 -5 -3 -10 -1 -10 4 0 18 -198 201 -218 201 -7 0 -10 5 -7 10 3 6 1
10 -5 10 -12 0 -80 48 -92 65 -4 5 -8 6 -8 2 0 -4 -10 1 -22 13 -12 11 -28 20
-35 20 -7 0 -13 5 -13 10 0 6 -5 10 -10 10 -6 0 -28 11 -49 24 -21 14 -42 22
-45 19 -3 -4 -6 -1 -6 5 0 7 -7 12 -15 12 -8 0 -15 5 -15 11 0 5 -4 7 -10 4
-5 -3 -10 -1 -10 4 0 6 -3 10 -7 9 -5 -1 -34 10 -65 25 -32 14 -69 29 -83 33
-14 3 -28 10 -30 15 -3 4 -12 6 -20 2 -8 -3 -15 0 -15 6 0 6 -11 11 -24 11
-14 0 -28 5 -31 10 -4 6 -10 8 -15 5 -5 -3 -11 -1 -15 5 -4 6 -11 8 -16 4 -5
-3 -15 -1 -22 4 -10 8 -73 25 -102 27 -5 0 -14 3 -20 6 -5 4 -18 5 -27 4 -10
-2 -18 0 -18 3 0 4 -12 8 -27 8 -27 2 -93 11 -103 15 -3 1 -9 1 -14 0 -5 -1
-16 1 -25 5 -24 10 -51 12 -45 2 3 -4 0 -8 -5 -8 -6 0 -11 4 -11 8 0 5 -61 10
-136 11 -110 2 -134 0 -128 -11 6 -10 5 -11 -7 -1 -12 10 -18 10 -29 0 -10 -9
-11 -9 -6 1 4 6 2 12 -3 12 -6 0 -11 -5 -11 -11 0 -8 -6 -7 -17 2 -11 9 -14
10 -9 2z"/>
</g>
</svg>
